<?xml version="1.0" encoding="UTF-8" standalone="no"?>
<svg
   xmlns:dc="http://purl.org/dc/elements/1.1/"
   xmlns:cc="http://creativecommons.org/ns#"
   xmlns:rdf="http://www.w3.org/1999/02/22-rdf-syntax-ns#"
   xmlns:svg="http://www.w3.org/2000/svg"
   xmlns="http://www.w3.org/2000/svg"
   xmlns:sodipodi="http://sodipodi.sourceforge.net/DTD/sodipodi-0.dtd"
   xmlns:inkscape="http://www.inkscape.org/namespaces/inkscape"
   version="1.1"
   style="font-family:'lucida grande', 'lucida sans unicode', arial, helvetica, sans-serif;font-size:12px;"
   width="600"
   height="400"
   id="svg3336"
   inkscape:version="0.91 r13725"
   sodipodi:docname="FitCurve.svg">
  <metadata
     id="metadata3535">
    <rdf:RDF>
      <cc:Work
         rdf:about="">
        <dc:format>image/svg+xml</dc:format>
        <dc:type
           rdf:resource="http://purl.org/dc/dcmitype/StillImage" />
        <dc:title></dc:title>
      </cc:Work>
    </rdf:RDF>
  </metadata>
  <sodipodi:namedview
     pagecolor="#ffffff"
     bordercolor="#666666"
     borderopacity="1"
     objecttolerance="10"
     gridtolerance="10"
     guidetolerance="10"
     inkscape:pageopacity="0"
     inkscape:pageshadow="2"
     inkscape:window-width="2299"
     inkscape:window-height="1267"
     id="namedview3533"
     showgrid="false"
     inkscape:zoom="2.0140758"
     inkscape:cx="326.78957"
     inkscape:cy="220.48395"
     inkscape:window-x="3540"
     inkscape:window-y="106"
     inkscape:window-maximized="0"
     inkscape:current-layer="svg3336" />
  <desc
     id="desc3338">Created with Highcharts 4.2.0</desc>
  <defs
     id="defs3340">
    <clipPath
       id="highcharts-11">
      <rect
         x="1"
         y="1"
         width="542"
         height="332"
         id="rect3343" />
    </clipPath>
  </defs>
  <rect
     x="67.222771"
     y="9.9148169"
     width="522.81616"
     height="320.99374"
     id="rect3345"
     style="fill:#ffffff" />
  <path
     d="m 67.222767,331.3891 522.816173,0 0,-64.39097 -522.816173,0"
     id="path3347"
     inkscape:connector-curvature="0"
     style="fill:#ffffff;fill-opacity:0.5" />
  <path
     d="m 67.222767,202.60718 522.816173,0 0,-63.42991 -522.816173,0"
     id="path3349"
     inkscape:connector-curvature="0"
     style="fill:#ffffff;fill-opacity:0.5" />
  <path
     d="m 67.222767,74.786309 522.816173,0 0,-64.390962 -522.816173,0"
     id="path3351"
     inkscape:connector-curvature="0"
     style="fill:#ffffff;fill-opacity:0.5" />
  <g
     class="highcharts-grid"
     id="g3353" />
  <g
     class="highcharts-grid"
     id="g3355"
     transform="matrix(0.96105914,0,0,0.96105914,23.014046,0.30422545)">
    <path
       d="m 46,344.5 544,0"
       id="path3357"
       inkscape:connector-curvature="0"
       style="opacity:1;fill:none;stroke:#c0c0c0;stroke-width:1" />
    <path
       d="m 46,277.5 544,0"
       id="path3359"
       inkscape:connector-curvature="0"
       style="opacity:1;fill:none;stroke:#c0c0c0;stroke-width:1" />
    <path
       d="m 46,210.5 544,0"
       id="path3361"
       inkscape:connector-curvature="0"
       style="opacity:1;fill:none;stroke:#c0c0c0;stroke-width:1" />
    <path
       d="m 46,144.5 544,0"
       id="path3363"
       inkscape:connector-curvature="0"
       style="opacity:1;fill:none;stroke:#c0c0c0;stroke-width:1" />
    <path
       d="m 46,77.5 544,0"
       id="path3365"
       inkscape:connector-curvature="0"
       style="opacity:1;fill:none;stroke:#c0c0c0;stroke-width:1" />
    <path
       d="m 46,9.5 544,0"
       id="path3367"
       inkscape:connector-curvature="0"
       style="opacity:1;fill:none;stroke:#c0c0c0;stroke-width:1" />
  </g>
  <rect
     x="67.222771"
     y="9.9148169"
     width="522.81616"
     height="320.99374"
     strokeWidth="-2"
     id="rect3369"
     style="fill:none;stroke:#026fc1;stroke-width:1.92211819" />
  <g
     class="highcharts-axis"
     id="g3371"
     transform="matrix(0.96105914,0,0,0.96105914,23.014046,0.30422545)">
    <path
       d="m 123.5,344 0,10"
       id="path3373"
       inkscape:connector-curvature="0"
       style="opacity:1;fill:none;stroke:#c0d0e0;stroke-width:1" />
    <path
       d="m 200.5,344 0,10"
       id="path3375"
       inkscape:connector-curvature="0"
       style="opacity:1;fill:none;stroke:#c0d0e0;stroke-width:1" />
    <path
       d="m 278.5,344 0,10"
       id="path3377"
       inkscape:connector-curvature="0"
       style="opacity:1;fill:none;stroke:#c0d0e0;stroke-width:1" />
    <path
       d="m 356.5,344 0,10"
       id="path3379"
       inkscape:connector-curvature="0"
       style="opacity:1;fill:none;stroke:#c0d0e0;stroke-width:1" />
    <path
       d="m 434.5,344 0,10"
       id="path3381"
       inkscape:connector-curvature="0"
       style="opacity:1;fill:none;stroke:#c0d0e0;stroke-width:1" />
    <path
       d="m 511.5,344 0,10"
       id="path3383"
       inkscape:connector-curvature="0"
       style="opacity:1;fill:none;stroke:#c0d0e0;stroke-width:1" />
    <path
       d="m 590.5,344 0,10"
       id="path3385"
       inkscape:connector-curvature="0"
       style="opacity:1;fill:none;stroke:#c0d0e0;stroke-width:1" />
    <path
       d="m 45.5,344 0,10"
       id="path3387"
       inkscape:connector-curvature="0"
       style="opacity:1;fill:none;stroke:#c0d0e0;stroke-width:1" />
    <path
       d="m 46,344.5 544,0"
       id="path3389"
       inkscape:connector-curvature="0"
       style="fill:none;stroke:#c0d0e0;stroke-width:1" />
  </g>
  <g
     class="highcharts-axis"
     id="g3391"
     transform="matrix(0.96105914,0,0,0.96105914,23.014046,0.30422545)">
    <path
       d="m 46,344.5 -10,0"
       id="path3393"
       inkscape:connector-curvature="0"
       style="opacity:1;fill:none;stroke:#c0d0e0;stroke-width:1" />
    <path
       d="m 46,277.5 -10,0"
       id="path3395"
       inkscape:connector-curvature="0"
       style="opacity:1;fill:none;stroke:#c0d0e0;stroke-width:1" />
    <path
       d="m 46,210.5 -10,0"
       id="path3397"
       inkscape:connector-curvature="0"
       style="opacity:1;fill:none;stroke:#c0d0e0;stroke-width:1" />
    <path
       d="m 46,144.5 -10,0"
       id="path3399"
       inkscape:connector-curvature="0"
       style="opacity:1;fill:none;stroke:#c0d0e0;stroke-width:1" />
    <path
       d="m 46,77.5 -10,0"
       id="path3401"
       inkscape:connector-curvature="0"
       style="opacity:1;fill:none;stroke:#c0d0e0;stroke-width:1" />
    <path
       d="m 46,9.5 -10,0"
       id="path3403"
       inkscape:connector-curvature="0"
       style="opacity:1;fill:none;stroke:#c0d0e0;stroke-width:1" />
  </g>
  <g
     class="highcharts-series-group"
     id="g3405"
     transform="matrix(0.96105914,0,0,0.96105914,23.014046,0.30422545)">
    <g
       class="highcharts-series highcharts-series-0"
       transform="translate(46,10)"
       clip-path="url(#highcharts-11)"
       id="g3407">
      <rect
         x="0"
         y="255"
         width="78"
         height="80"
         rx="0"
         ry="0"
         id="rect3409"
         style="fill:#50b432" />
      <rect
         x="78"
         y="228"
         width="77"
         height="107"
         rx="0"
         ry="0"
         id="rect3411"
         style="fill:#ed561b" />
      <rect
         x="155"
         y="175"
         width="78"
         height="160"
         rx="0"
         ry="0"
         id="rect3413"
         style="fill:#dddf00" />
      <rect
         x="233"
         y="68"
         width="78"
         height="267"
         rx="0"
         ry="0"
         id="rect3415"
         style="fill:#24cbe5" />
      <rect
         x="311"
         y="68"
         width="78"
         height="267"
         rx="0"
         ry="0"
         id="rect3417"
         style="fill:#64e572" />
      <rect
         x="389"
         y="148"
         width="77"
         height="187"
         rx="0"
         ry="0"
         id="rect3419"
         style="fill:#ff9655" />
      <rect
         x="466"
         y="255"
         width="78"
         height="80"
         rx="0"
         ry="0"
         id="rect3421"
         style="fill:#fff263" />
    </g>
    <g
       class="highcharts-markers highcharts-series-0"
       transform="translate(46,10)"
       clip-path="none"
       id="g3423" />
    <g
       class="highcharts-series highcharts-series-1"
       transform="translate(46,10)"
       clip-path="url(#highcharts-11)"
       id="g3425" />
    <g
       class="highcharts-markers highcharts-series-1"
       transform="translate(46,10)"
       clip-path="none"
       id="g3427" />
  </g>
  <g
     class="highcharts-data-labels highcharts-series-1"
     visibility="visible"
     transform="translate(46,10) scale(1 1)"
     opacity="1"
     id="g3473" />
  <g
     class="highcharts-axis-labels highcharts-xaxis-labels"
     id="g3489">
    <text
       x="84.85714285714286"
       style="color:#000000;cursor:default;font-size:10px;font-family:'arial', sans-serif;text-transform:none;font-weight:normal;fill:#000000;"
       text-anchor="middle"
       transform="translate(0,0)"
       y="362"
       opacity="1"
       id="text3491" />
    <text
       x="162.57142857142856"
       style="color:#000000;cursor:default;font-size:10px;font-family:'arial', sans-serif;text-transform:none;font-weight:normal;fill:#000000;"
       text-anchor="middle"
       transform="translate(0,0)"
       y="362"
       opacity="1"
       id="text3493" />
    <text
       x="240.28571428571425"
       style="color:#000000;cursor:default;font-size:10px;font-family:'arial', sans-serif;text-transform:none;font-weight:normal;fill:#000000;"
       text-anchor="middle"
       transform="translate(0,0)"
       y="362"
       opacity="1"
       id="text3495" />
    <text
       x="318"
       style="color:#000000;cursor:default;font-size:10px;font-family:'arial', sans-serif;text-transform:none;font-weight:normal;fill:#000000;"
       text-anchor="middle"
       transform="translate(0,0)"
       y="362"
       opacity="1"
       id="text3497" />
    <text
       x="395.71428571428567"
       style="color:#000000;cursor:default;font-size:10px;font-family:'arial', sans-serif;text-transform:none;font-weight:normal;fill:#000000;"
       text-anchor="middle"
       transform="translate(0,0)"
       y="362"
       opacity="1"
       id="text3499" />
    <text
       x="473.4285714285714"
       style="color:#000000;cursor:default;font-size:10px;font-family:'arial', sans-serif;text-transform:none;font-weight:normal;fill:#000000;"
       text-anchor="middle"
       transform="translate(0,0)"
       y="362"
       opacity="1"
       id="text3501" />
    <text
       x="551.1428571428571"
       style="color:#000000;cursor:default;font-size:10px;font-family:'arial', sans-serif;text-transform:none;font-weight:normal;fill:#000000;"
       text-anchor="middle"
       transform="translate(0,0)"
       y="362"
       opacity="1"
       id="text3503" />
  </g>
  <g
     class="highcharts-axis-labels highcharts-yaxis-labels"
     id="g3505"
     transform="matrix(0.96105914,0,0,0.96105914,23.014046,0.30422545)">
    <text
       x="31"
       style="color:#000000;font-weight:normal;font-size:10px;font-family:arial, sans-serif;text-transform:none;text-anchor:end;opacity:1;fill:#000000"
       y="349"
       id="text3507">0</text>
    <text
       x="31"
       style="color:#000000;font-weight:normal;font-size:10px;font-family:arial, sans-serif;text-transform:none;text-anchor:end;opacity:1;fill:#000000"
       y="282"
       id="text3509">2.5</text>
    <text
       x="31"
       style="color:#000000;font-weight:normal;font-size:10px;font-family:arial, sans-serif;text-transform:none;text-anchor:end;opacity:1;fill:#000000"
       y="215"
       id="text3511">5</text>
    <text
       x="31"
       style="color:#000000;font-weight:normal;font-size:10px;font-family:arial, sans-serif;text-transform:none;text-anchor:end;opacity:1;fill:#000000"
       y="148"
       id="text3513">7.5</text>
    <text
       x="31"
       style="color:#000000;font-weight:normal;font-size:10px;font-family:arial, sans-serif;text-transform:none;text-anchor:end;opacity:1;fill:#000000"
       y="81"
       id="text3515">10</text>
    <text
       x="31"
       style="color:#000000;font-weight:normal;font-size:10px;font-family:arial, sans-serif;text-transform:none;text-anchor:end;opacity:1;fill:#000000"
       y="15"
       id="text3517">12.5</text>
  </g>
  <g
     class="highcharts-tooltip"
     style="cursor:default;padding:0;pointer-events:none;white-space:nowrap;"
     transform="translate(0,-9999)"
     id="g3519">
    <path
       fill="none"
       d="M 3.5 0.5 L 13.5 0.5 C 16.5 0.5 16.5 0.5 16.5 3.5 L 16.5 13.5 C 16.5 16.5 16.5 16.5 13.5 16.5 L 3.5 16.5 C 0.5 16.5 0.5 16.5 0.5 13.5 L 0.5 3.5 C 0.5 0.5 0.5 0.5 3.5 0.5"
       stroke="black"
       stroke-opacity="0.049999999999999996"
       stroke-width="5"
       transform="translate(1, 1)"
       id="path3521" />
    <path
       fill="none"
       d="M 3.5 0.5 L 13.5 0.5 C 16.5 0.5 16.5 0.5 16.5 3.5 L 16.5 13.5 C 16.5 16.5 16.5 16.5 13.5 16.5 L 3.5 16.5 C 0.5 16.5 0.5 16.5 0.5 13.5 L 0.5 3.5 C 0.5 0.5 0.5 0.5 3.5 0.5"
       stroke="black"
       stroke-opacity="0.09999999999999999"
       stroke-width="3"
       transform="translate(1, 1)"
       id="path3523" />
    <path
       fill="none"
       d="M 3.5 0.5 L 13.5 0.5 C 16.5 0.5 16.5 0.5 16.5 3.5 L 16.5 13.5 C 16.5 16.5 16.5 16.5 13.5 16.5 L 3.5 16.5 C 0.5 16.5 0.5 16.5 0.5 13.5 L 0.5 3.5 C 0.5 0.5 0.5 0.5 3.5 0.5"
       stroke="black"
       stroke-opacity="0.15"
       stroke-width="1"
       transform="translate(1, 1)"
       id="path3525" />
    <path
       fill="rgb(255, 255, 255)"
       fill-opacity=" 0.85"
       d="M 3.5 0.5 L 13.5 0.5 C 16.5 0.5 16.5 0.5 16.5 3.5 L 16.5 13.5 C 16.5 16.5 16.5 16.5 13.5 16.5 L 3.5 16.5 C 0.5 16.5 0.5 16.5 0.5 13.5 L 0.5 3.5 C 0.5 0.5 0.5 0.5 3.5 0.5"
       id="path3527" />
    <text
       x="8"
       style="font-size:12px;color:#000000;fill:#000000;"
       y="20"
       id="text3529" />
  </g>
  <text
     xml:space="preserve"
     style="font-style:italic;font-variant:normal;font-weight:normal;font-stretch:normal;font-size:26.6328125px;line-height:125%;font-family:Verdana;-inkscape-font-specification:'Verdana, Italic';text-align:start;letter-spacing:0px;word-spacing:0px;writing-mode:lr-tb;text-anchor:start;fill:#696969;fill-opacity:1;stroke:none;stroke-width:1px;stroke-linecap:butt;stroke-linejoin:miter;stroke-opacity:1"
     x="-295.02811"
     y="28.142046"
     id="text3537"
     sodipodi:linespacing="125%"
     transform="matrix(0,-1,1,0,0,0)"><tspan
       sodipodi:role="line"
       id="tspan3539"
       x="-295.02811"
       y="28.142046">Texture Red Value</tspan></text>
  <text
     xml:space="preserve"
     style="font-style:italic;font-variant:normal;font-weight:normal;font-stretch:normal;font-size:26.6328125px;line-height:125%;font-family:Verdana;-inkscape-font-specification:'Verdana, Italic';text-align:start;letter-spacing:0px;word-spacing:0px;writing-mode:lr-tb;text-anchor:start;fill:#696969;fill-opacity:1;stroke:none;stroke-width:1px;stroke-linecap:butt;stroke-linejoin:miter;stroke-opacity:1"
     x="185.13925"
     y="371.66348"
     id="text3541"
     sodipodi:linespacing="125%"><tspan
       sodipodi:role="line"
       id="tspan3543"
       x="185.13925"
       y="371.66348"
       style="font-style:italic;font-variant:normal;font-weight:normal;font-stretch:normal;font-size:26.6328125px;line-height:125%;font-family:Verdana;-inkscape-font-specification:'Verdana, Italic';text-align:start;writing-mode:lr-tb;text-anchor:start;fill:#696969;fill-opacity:1">Texture U coordinate</tspan></text>
  <path
     style="font-size:12px;font-family:'lucida grande', 'lucida sans unicode', arial, helvetica, sans-serif;fill:none;fill-rule:evenodd;stroke:#1d5b2c;stroke-width:10.65312481;stroke-linecap:butt;stroke-linejoin:miter;stroke-miterlimit:4;stroke-dasharray:31.95937419, 10.65312473;stroke-dashoffset:0;stroke-opacity:1"
     d="m 96.240518,258.52872 c 0,0 108.625552,-11.62272 158.629822,-81.70802 C 384.60876,-5.0189241 397.84198,27.92995 555.35492,254.82617"
     id="path3545-1"
     inkscape:connector-curvature="0"
     sodipodi:nodetypes="csc" />
</svg>
